# xmcd
#
# Track frame offsets: 
#        150
#        19800
#        61878
#        89775
#        106050
#        127275
#        152250
#        178950
#        185175
#        198975
#        239475
#        267900
#        282525
#        307127
#
# Disc length: 4709 seconds
#
# Revision: 0
# Processed by: cddbd v1.5.2PL0 Copyright (c) Steve Scherf et al.
# Submitted via: ExactAudioCopyFreeDBPlugin 1.0
#
DISCID=d712630e
DTITLE=櫻井·子安·岸尾·宫田·檜山 - 豪華客船で恋は始まる ドラマCD 4
DYEAR=2006
DGENRE=Pop
TTITLE0=Chapter1 再度 甘い航海へ
TTITLE1=Chapter2 船上のカジノ
TTITLE2=Chapter3 指輪盗難事件
TTITLE3=Chapter4 無実の証明
TTITLE4=Chapter5 コンシェルジュ·湊
TTITLE5=Chapter6 贅沢な時間と秘密
TTITLE6=Chapter7 指輪の行方
TTITLE7=Chapter8 ベリーニからの相談
TTITLE8=Chapter9 噂と真実
TTITLE9=Chapter10 対決
TTITLE10=Chapter11 最後の勝負
TTITLE11=Chapter12 勝ち取ったもの
TTITLE12=Chapter13 幸運と幸福のキス
TTITLE13=Chapter14 TALK
EXTD=
EXTT0=
EXTT1=
EXTT2=
EXTT3=
EXTT4=
EXTT5=
EXTT6=
EXTT7=
EXTT8=
EXTT9=
EXTT10=
EXTT11=
EXTT12=
EXTT13=
PLAYORDER=
